<svg xmlns="http://www.w3.org/2000/svg" xmlns:xlink="http://www.w3.org/1999/xlink" viewBox="0 0 1003.39 407.36"><defs><style>.cls-1{fill:#dca86e;}.cls-2{fill:url(#linear-gradient);}.cls-3{fill:#444;}.cls-4{fill:url(#linear-gradient-2);}.cls-5{fill:#636363;}.cls-6{fill:#fec4ad;}.cls-7{fill:url(#linear-gradient-3);}.cls-8{fill:#b22e00;}.cls-9{fill:url(#linear-gradient-4);}.cls-10{fill:#f8d2a1;}.cls-11{fill:#f55e1e;}.cls-12{fill:none;stroke:#a6aeba;stroke-miterlimit:10;stroke-width:0.5px;}.cls-13{fill:#50cc85;}.cls-14{fill:#77e6a6;}.cls-15{fill:#d2dceb;}.cls-16{fill:#f3ba7a;}.cls-17{fill:#a6aeba;}.cls-18{fill:#b6bfcc;}.cls-19{fill:#fff;}</style><linearGradient id="linear-gradient" x1="1031.03" y1="-95.53" x2="1089.24" y2="-95.53" gradientTransform="translate(-335.67 -172.89) rotate(36.07)" gradientUnits="userSpaceOnUse"><stop offset="0" stop-color="#343a44"/><stop offset="0.3" stop-color="#232d3e"/><stop offset="0.64" stop-color="#182439"/><stop offset="1" stop-color="#142138"/></linearGradient><linearGradient id="linear-gradient-2" x1="634.88" y1="583.12" x2="693.05" y2="583.12" gradientTransform="translate(0 -202)" xlink:href="#linear-gradient"/><linearGradient id="linear-gradient-3" x1="-1514.41" y1="-783.51" x2="-1451.38" y2="-783.51" gradientTransform="matrix(-0.66, -0.75, -0.75, 0.66, -627.95, -506.66)" xlink:href="#linear-gradient"/><linearGradient id="linear-gradient-4" x1="737.82" y1="403.88" x2="936" y2="403.88" gradientTransform="translate(0 -202)" xlink:href="#linear-gradient"/></defs><g id="Layer_2" data-name="Layer 2"><g id="Layer_1-2" data-name="Layer 1"><g id="Layer_2-2" data-name="Layer 2"><g id="Layer_1-2-2" data-name="Layer 1-2"><g id="Layer_2-2-2" data-name="Layer 2-2"><g id="OBJECTS"><polygon class="cls-1" points="850.74 264.34 916.91 407.36 924.37 407.34 867.15 255.05 850.74 264.34"/><polygon class="cls-1" points="782.3 267.4 716.13 407.36 708.67 407.34 765.89 264.22 782.3 267.4"/><path class="cls-2" d="M614.17,376.71l-33.63,29.43-39.65-27.9s13.5-4.53,36.64,1.63L601.2,360Z"/><path class="cls-3" d="M808.86,214.38s-74.33,38.1-100.59,49.5S592.66,364.74,592.66,364.74s11.44,23.29,17.16,19.2c50.45-36.06,96.92-68.34,126.78-79.6,59.14-22.29,75.62-27.14,90.77-44.7C827.37,259.64,818.49,238.54,808.86,214.38Z"/><path class="cls-4" d="M693.05,361.69l-9.7,43.63-48.47,1s8.2-11.63,30.5-20.35l7.31-30.06Z"/><path class="cls-5" d="M810.66,204.71s-69.14,7.45-94.35,21-45.27,138-45.27,138,19.58,10.62,22,4a908,908,0,0,1,41.24-94.94c24.84-4.54,82.38,23.47,124-17.5C858.26,255.36,822.29,228,810.66,204.71Z"/><path class="cls-6" d="M929.8,120.66a92.32,92.32,0,0,0-8.14,18.62l-28.44-2.62s14.69-22.25,13.56-35.74Z"/><path class="cls-6" d="M923.69,74.7c-1.62-.43-7.7-2.1-8.93-1.6-1.7.69.28,2.93-.92,4.3-1.94,2.21-5.84,2.25-8.34,3.6a16.67,16.67,0,0,0-6.74,6.21c-2.32,4.07,6.12,13.15,7.44,20,2.76,14.24,20.76,16.35,35.38,12,5.23-1.56,10-6.26,12.89-10.82,3.35-5.36,1.46-14.32-1.35-19.66-1.68-3.2-5-6-7.92-8-2.64-1.81-3.37-9.38-6.55-9.91C938.65,70.79,927.32,75.66,923.69,74.7Z"/><path class="cls-7" d="M964.52,112.93s-.49-2.39,3.63-6.28c13.65-12.84-.95-38-15.81-42.35-7.61-2.24-12.47.12-15.2-7.44.19.55-3.08,1.93-3.4,2.21-1.78,1.51-2.63,2.57-2.69,5.07-.25,11,9.58,21.2,17,28.12,3.35,3.11-4.88,1-8.2,1.6-2.16.41-7.76,6.33-9,7.22,3.11,3.89,5.89.38,10.1,2.26,3.88,1.73,1.42,6.68-2.2,7.26-5.61.91-7.89-2.79-7.89-2.79-2.58,1.39-3,9.72-5,11.9,2.79,1.53,19,4.39,22.86,4.34C956.91,124,961.9,119.45,964.52,112.93Z"/><path class="cls-8" d="M928.88,125.09c6,66.51-70.62,130.27-70.62,130.27s-50,1.88-47.6-50.65c0,0,3.89-9.56,34.85-37.61,20.68-18.75,35.21-46.72,49.76-46.16C935,122.46,928.88,125.09,928.88,125.09Z"/><path class="cls-9" d="M737.82,272.75s51.44,3.45,112.9-19.86S929,120.74,929,120.74l7,3.56s-6.84,120.14-87.77,146.25c-61.87,20-110.4,9.94-110.4,9.94Z"/><path class="cls-10" d="M921.48,191.52s7.37,25.52,7.78,38.24-5,55.9-5,55.9L936,287.15s10.41-51.47,10.66-68.27-9.44-44-9.44-44Z"/><path class="cls-11" d="M920.75,192.6c8.51,37.16,5,87,5,87l12.71.81c13.94-29.16,12.63-93.74,5.26-120.92-4.33-16-6.88-32.06-17.68-34.55-6.75-1.55-20.65,3.39-22.51,10.07C899.47,149.46,916.58,174.37,920.75,192.6Z"/><path class="cls-10" d="M919,292.08c-2.81,5.35-4.08,9.26-2.43,10.61,1.15.93,3-4.26,5.19-6.11a16,16,0,0,1-.64,9.6c-1.56,3.85-1.43,7.15,1.5,7.43s7.69.09,8.74-2.34,3.47-12.54,4.77-15.9-.43-7.24.07-9.17-8.64-5.15-8.64-5.15c-.5.77-3.32,4.61-3.32,4.61A29.2,29.2,0,0,1,921,289C920.22,289.54,919,292.08,919,292.08Z"/><line class="cls-12" y1="406.66" x2="1003.39" y2="406.66"/><path class="cls-13" d="M364.75,98.41a61.94,61.94,0,0,1,8.72-14.33c5.62-6.75,14-18,14-18s-4.09,8-9.64,17A69,69,0,0,1,364.75,98.41Z"/><path class="cls-13" d="M370.56,85.23s6.23-4.89,10-15.24,7.15-18.24,7.15-18.24S379.6,63.3,376.13,71.31,370.56,85.23,370.56,85.23Z"/><path class="cls-13" d="M365.17,96.94s3.26-11.84,3.89-21.3.57-15.39.57-15.39-4.11,17.16-5.34,24.44A23.62,23.62,0,0,0,365.17,96.94Z"/><path class="cls-13" d="M362.38,104.81s1-12.2-2.39-23.11-3.61-17.84-3.61-17.84-1.65,11.42.31,21.27A141.44,141.44,0,0,0,362.38,104.81Z"/><path class="cls-13" d="M363.39,102.11s8.67-7.4,13-9.14,10.48-6.81,10.48-6.81-7.53,9.63-11.73,11.54S363.39,102.11,363.39,102.11Z"/><path class="cls-13" d="M360.4,112.46s.84-6.66-3-16.09-4.77-14.11-4.77-14.11S352.4,95.07,355,99.88A134.11,134.11,0,0,1,360.4,112.46Z"/><path class="cls-13" d="M361.21,107.61s5-3.32,9.78-4,6.08-1.33,6.08-1.33a11.39,11.39,0,0,1-8.35,5.18C362.8,108.22,361.21,107.61,361.21,107.61Z"/><path class="cls-13" d="M358,118.82c1.08-4.19,2.46-10.66,3.89-15C365,94.28,372.49,82,372.49,82c-4.58,10.16-7.92,15.87-10.22,24.63-.92,3.47-2.49,8.29-3.35,11.44C358.78,118.91,358.09,119.64,358,118.82Z"/><path class="cls-14" d="M360.16,101.82a65.87,65.87,0,0,0-3.8-17.42c-3.32-8.73-7.86-22.93-7.86-22.93s1.34,9.46,3.79,20.47A74.18,74.18,0,0,0,360.16,101.82Z"/><path class="cls-14" d="M358.88,86.57s-4.57-7.07-4.75-18.77-.87-20.8-.87-20.8,4.12,14.41,4.84,23.66S358.88,86.57,358.88,86.57Z"/><path class="cls-14" d="M360.25,100.2s.82-13,3.45-22.75,4.75-15.67,4.75-15.67-1.8,18.66-3.08,26.42A25,25,0,0,1,360.25,100.2Z"/><path class="cls-14" d="M360.33,109.07s3.17-12.62,10.39-22.4S380.53,70,380.53,70s-2.3,12-7.67,21.27A150,150,0,0,1,360.33,109.07Z"/><path class="cls-14" d="M360.25,106s-6.15-10.43-9.95-13.7-8.18-10.47-8.18-10.47,4.24,12.29,7.8,15.67S360.25,106,360.25,106Z"/><path class="cls-14" d="M359.67,117.46s1.46-7,8.62-15.14S378,89.79,378,89.79s-4.2,13-8.42,16.91A146.15,146.15,0,0,0,359.67,117.46Z"/><path class="cls-14" d="M360.54,112.3s-3.86-5.06-8.45-7.4-5.65-3.44-5.65-3.44a12.06,12.06,0,0,0,6.59,8.1C358.73,112.36,360.54,112.3,360.54,112.3Z"/><path class="cls-13" d="M359.93,124.69c.37-4.58,1.22-11.57,1.28-16.41.13-10.69-3.15-25.65-3.15-25.65,1.09,11.8,2.48,18.69,1.76,28.3-.28,3.8-.36,9.19-.59,12.65C359.07,124.49,359.51,125.46,359.93,124.69Z"/><path class="cls-13" d="M353.58,103.62a62,62,0,0,0-8.73-14.33c-5.62-6.75-14-18-14-18s4.09,8,9.64,17A69.06,69.06,0,0,0,353.58,103.62Z"/><path class="cls-13" d="M347.76,90.45s-6.23-4.89-10-15.25S330.65,57,330.65,57s8.07,11.56,11.55,19.56S347.76,90.45,347.76,90.45Z"/><path class="cls-13" d="M353.16,102.16s-3.26-11.85-3.9-21.3-.57-15.39-.57-15.39S352.8,82.62,354,89.91A23.51,23.51,0,0,1,353.16,102.16Z"/><path class="cls-13" d="M355.94,110s-1-12.2,2.39-23.11S362,69.07,362,69.07s1.64,11.42-.31,21.27A141.8,141.8,0,0,1,355.94,110Z"/><path class="cls-13" d="M354.93,107.33s-8.66-7.4-13-9.14-10.48-6.82-10.48-6.82S339,101,343.18,102.92,354.93,107.33,354.93,107.33Z"/><path class="cls-13" d="M357.92,117.68s-.84-6.66,3-16.1,4.76-14.11,4.76-14.11.23,12.82-2.31,17.63A134.5,134.5,0,0,0,357.92,117.68Z"/><path class="cls-13" d="M357.11,112.83s-5-3.32-9.78-4-6.08-1.32-6.08-1.32a11.42,11.42,0,0,0,8.35,5.18C355.52,113.44,357.11,112.83,357.11,112.83Z"/><path class="cls-13" d="M360.37,124c-1.07-4.19-2.46-10.67-3.89-15-3.15-9.55-10.65-21.85-10.65-21.85,4.58,10.15,7.93,15.87,10.23,24.63.91,3.47,2.49,8.29,3.34,11.43C359.54,124.13,360.23,124.85,360.37,124Z"/><polygon class="cls-15" points="371.37 153.28 347.88 153.28 340.62 111.9 379.48 111.9 371.37 153.28"/><polygon class="cls-1" points="639.77 164.65 678.51 406.89 685.97 406.87 655.32 164.6 639.77 164.65"/><polygon class="cls-1" points="372.69 164.76 322.24 407.24 312.19 407.27 351.75 164.81 372.69 164.76"/><rect class="cls-1" x="293.27" y="150.49" width="416.86" height="18.66"/><rect class="cls-16" x="273.28" y="150.49" width="456.83" height="12.38"/><polygon class="cls-17" points="602.36 143.96 586.15 143.96 569.93 40.51 582.26 40.51 602.36 143.96"/><polygon class="cls-15" points="597.71 143.96 534.42 143.96 518.21 40.51 581.49 40.51 597.71 143.96"/><rect class="cls-15" x="533.57" y="141.61" width="68.79" height="7.72"/><rect class="cls-17" x="602.36" y="141.61" width="86.73" height="7.72"/><path class="cls-17" d="M563,97.27c1.83,7.91.54,16.47-2.88,19.1s-7.68-1.66-9.51-9.58-.54-16.47,2.88-19.1S561.12,89.35,563,97.27Z"/><path class="cls-17" d="M464.51,149h-9a7.53,7.53,0,0,1-7.44-6.37l-3.58-23.1h31L472,142.6A7.53,7.53,0,0,1,464.51,149Z"/><path class="cls-17" d="M472.83,144.05h-1.42l-.34-.26c-.22-.17-5.46-4.27-5.46-10.14s4-10.9,8.9-10.9a9.31,9.31,0,0,1,7.22,3.07c1.17,1.39,2.4,3.93,1.66,8.08h0C482.22,140.37,478.39,144.05,472.83,144.05Zm-.34-2.83c5.67.18,7.45-4.16,8.13-7.89h0c.44-2.47.09-4.41-1.05-5.77a6.47,6.47,0,0,0-5.05-2.06c-3.35,0-6.07,3.63-6.07,8.08C468.45,137.33,471.49,140.33,472.49,141.22Z"/><polygon class="cls-15" points="441.43 151 480.73 151 487 144.06 435.16 144.06 441.43 151"/><rect class="cls-18" x="45.08" width="188.08" height="406.81"/><rect class="cls-15" x="66.73" y="17.77" width="144.77" height="42.66"/><rect class="cls-19" x="120.19" y="33.93" width="37.85" height="10.34" rx="0.8"/><rect class="cls-15" x="66.73" y="72.06" width="144.77" height="42.66"/><rect class="cls-19" x="120.19" y="88.22" width="37.85" height="10.34" rx="0.8"/><rect class="cls-15" x="66.73" y="126.34" width="144.77" height="42.66"/><rect class="cls-19" x="120.19" y="142.5" width="37.85" height="10.34" rx="0.8"/><rect class="cls-15" x="66.73" y="181.24" width="144.77" height="209.09"/><rect class="cls-19" x="120.19" y="197.4" width="37.85" height="10.34" rx="0.8"/></g></g></g></g></g></g></svg>