<svg width="245" height="24" viewBox="0 0 245 24" fill="none" xmlns="http://www.w3.org/2000/svg">
<rect x="0.5" y="0.5" width="39" height="23" rx="1.5" stroke="#062A78"/>
<path d="M16.0029 16.3965L17.2966 8.14355H19.3657L18.0712 16.3965H16.0029Z" fill="#00569F"/>
<path d="M25.5758 8.34662C25.1659 8.17942 24.5236 8 23.7214 8C21.6769 8 20.2367 9.11933 20.2244 10.7236C20.2129 11.9094 21.2526 12.571 22.0374 12.9657C22.8428 13.3702 23.1136 13.6282 23.1097 13.9895C23.1046 14.5426 22.4666 14.7954 21.8719 14.7954C21.0437 14.7954 20.6037 14.6703 19.9242 14.3622L19.6576 14.231L19.3672 16.0785C19.8505 16.3089 20.7441 16.5085 21.672 16.5188C23.847 16.5188 25.259 15.4123 25.275 13.6992C25.2828 12.7604 24.7316 12.0459 23.5378 11.4569C22.8146 11.0751 22.3717 10.8204 22.3764 10.4338C22.3764 10.0907 22.7513 9.72392 23.5613 9.72392C24.2379 9.71249 24.728 9.8729 25.1099 10.0401L25.2954 10.1353L25.5758 8.34662Z" fill="#00569F"/>
<path d="M30.8814 8.15131H29.2826C28.7873 8.15131 28.4167 8.29827 28.1991 8.8357L25.1262 16.3989H27.299C27.299 16.3989 27.6542 15.382 27.7346 15.1587C27.972 15.1587 30.0827 15.1623 30.3845 15.1623C30.4464 15.4512 30.6362 16.3989 30.6362 16.3989H32.5562L30.8814 8.15131ZM28.33 13.4707C28.5011 12.9952 29.1544 11.1637 29.1544 11.1637C29.1422 11.1857 29.3242 10.6859 29.4287 10.376L29.5686 11.0876C29.5686 11.0876 29.9648 13.0576 30.0476 13.4707H28.33V13.4707Z" fill="#00569F"/>
<path d="M14.2676 8.14941L12.2418 13.7773L12.026 12.6336C11.6489 11.3151 10.4739 9.88674 9.1604 9.17162L11.0127 16.3892L13.2019 16.3864L16.4593 8.14941H14.2676Z" fill="#00569F"/>
<path d="M10.3628 8.14496H7.02641L7 8.31667C9.59572 8.99979 11.3133 10.6507 12.0262 12.6342L11.3008 8.8417C11.1755 8.31911 10.8122 8.16317 10.3628 8.14496Z" fill="#FAA61A"/>
<rect x="41.5" y="0.5" width="39" height="23" rx="1.5" stroke="#062A78"/>
<path d="M64.3749 6.68347H57.8574V18.2912H64.3749V6.68347Z" fill="#FF5F00"/>
<path d="M58.271 12.4898C58.2698 11.3717 58.5253 10.2681 59.0182 9.26234C59.5111 8.25661 60.2285 7.37522 61.1159 6.6849C60.0171 5.82908 58.6975 5.29689 57.3079 5.14917C55.9183 5.00144 54.5148 5.24414 53.2578 5.84952C52.0008 6.45491 50.941 7.39855 50.1996 8.5726C49.4581 9.74666 49.0649 11.1038 49.0649 12.4888C49.0649 13.8738 49.4581 15.2309 50.1996 16.405C50.941 17.579 52.0008 18.5227 53.2578 19.1281C54.5148 19.7334 55.9183 19.9761 57.3079 19.8284C58.6975 19.6807 60.0171 19.1485 61.1159 18.2927C60.2287 17.6026 59.5116 16.7215 59.0187 15.7162C58.5258 14.7108 58.2701 13.6075 58.271 12.4898Z" fill="#EB001B"/>
<path d="M73.1676 12.4883C73.1675 13.8735 72.7743 15.2307 72.0327 16.4048C71.2911 17.5789 70.2312 18.5225 68.974 19.1278C67.7169 19.7331 66.3132 19.9756 64.9235 19.8277C63.5339 19.6798 62.2142 19.1473 61.1155 18.2912C62.0023 17.6005 62.7193 16.7192 63.2123 15.7138C63.7053 14.7084 63.9615 13.6052 63.9615 12.4873C63.9615 11.3695 63.7053 10.2663 63.2123 9.26086C62.7193 8.25546 62.0023 7.37416 61.1155 6.68344C62.2142 5.82735 63.5339 5.2949 64.9235 5.14696C66.3132 4.99903 67.7169 5.24157 68.974 5.84686C70.2312 6.45216 71.2911 7.39579 72.0327 8.56988C72.7743 9.74398 73.1675 11.1012 73.1676 12.4863V12.4883Z" fill="#F79E1B"/>
<path d="M72.4559 17.0609V16.823H72.5531V16.7738H72.3069V16.823H72.4124V17.0609H72.4559ZM72.9338 17.0609V16.7738H72.8593L72.7724 16.9789L72.6855 16.7738H72.6193V17.0609H72.6731V16.8456L72.7538 17.0322H72.8097L72.8904 16.8456V17.0629L72.9338 17.0609Z" fill="#F79E1B"/>
<rect x="82.5" y="0.5" width="39" height="23" rx="1.5" stroke="#062A78"/>
<g clip-path="url(#clip0_10202_8427)">
<path d="M113.742 17.1893V16.8953H113.665L113.577 17.0971L113.489 16.8953H113.411V17.1893H113.466V16.9678L113.549 17.1589H113.605L113.688 16.9674V17.1893H113.742ZM113.256 17.1893V16.9457H113.354V16.8967H113.104V16.9457H113.202V17.1893H113.255H113.256Z" fill="#0099DF"/>
<path d="M105.038 18.4504H98.4121V6.54218H105.038V18.4504Z" fill="#6C6BBD"/>
<path d="M98.8329 12.4961C98.8329 10.0804 99.964 7.92856 101.725 6.54187C100.392 5.49061 98.743 4.9201 97.0452 4.92268C92.8628 4.92268 89.4727 8.31333 89.4727 12.4961C89.4727 16.6788 92.8628 20.0696 97.0451 20.0696C98.7429 20.0721 100.392 19.5016 101.725 18.4502C99.964 17.0636 98.8329 14.9117 98.8329 12.4961Z" fill="#EB001B"/>
<path d="M113.978 12.4965C113.978 16.6792 110.588 20.07 106.406 20.07C104.708 20.0725 103.059 19.5019 101.725 18.4507C103.487 17.064 104.618 14.9122 104.618 12.4965C104.618 10.0808 103.487 7.92911 101.725 6.54242C103.059 5.49119 104.708 4.92064 106.406 4.9231C110.588 4.9231 113.978 8.31375 113.978 12.4965" fill="#0099DF"/>
</g>
<rect x="205.5" y="0.5" width="39" height="23" rx="1.5" stroke="#062A78"/>
<path d="M226.717 19.8448C231.047 19.8655 235 16.313 235 11.9913C235 7.26517 231.047 3.99843 226.717 4H222.99C218.607 3.99843 215 7.26614 215 11.9913C215 16.314 218.607 19.8656 222.99 19.8448H226.717Z" fill="#0079BE"/>
<path d="M223.007 4.65485C219.002 4.6561 215.757 7.90209 215.756 11.9083C215.757 15.9138 219.002 19.1595 223.007 19.1607C227.012 19.1595 230.258 15.9138 230.259 11.9083C230.258 7.90209 227.012 4.6561 223.007 4.65485V4.65485ZM218.411 11.9083C218.415 9.95063 219.637 8.28127 221.361 7.61789V16.1977C219.637 15.5347 218.415 13.8662 218.411 11.9083V11.9083ZM224.652 16.1996V7.61761C226.376 8.27938 227.601 9.94969 227.604 11.9083C227.601 13.8675 226.376 15.5365 224.652 16.1996Z" fill="white"/>
<path fill-rule="evenodd" clip-rule="evenodd" d="M124 1H162V24H124V1Z" fill="#016FD0"/>
<path fill-rule="evenodd" clip-rule="evenodd" d="M147.333 20.3608V12.1191L162 12.1332V14.4089L160.305 16.2208L162 18.0493V20.3736H159.294L157.855 18.7866L156.426 20.38L147.333 20.3608Z" fill="white"/>
<path fill-rule="evenodd" clip-rule="evenodd" d="M148.311 19.4575V13.0264H153.765V14.5074H150.077V15.513H153.677V16.9697H150.077V17.9574H153.765V19.4575H148.311Z" fill="#016FD0"/>
<path fill-rule="evenodd" clip-rule="evenodd" d="M153.737 19.4575L156.755 16.2375L153.737 13.0264H156.073L157.916 15.0645L159.765 13.0264H162V13.0775L159.047 16.2375L162 19.3655V19.4575H159.742L157.867 17.399L156.009 19.4575H153.737Z" fill="#016FD0"/>
<path fill-rule="evenodd" clip-rule="evenodd" d="M148.016 4.80389H151.552L152.794 7.62395V4.80389H157.158L157.911 6.91734L158.666 4.80389H162V13.0456H144.385L148.016 4.80389Z" fill="white"/>
<path fill-rule="evenodd" clip-rule="evenodd" d="M148.685 5.69965L145.832 12.1256H147.788L148.328 10.8389H151.245L151.778 12.1256H153.782L150.946 5.69965H148.685ZM148.931 9.39626L149.787 7.35181L150.642 9.39626H148.931Z" fill="#016FD0"/>
<path fill-rule="evenodd" clip-rule="evenodd" d="M153.761 12.1244V5.69843L156.512 5.70865L157.928 9.65826L159.352 5.69843H162V12.1244L160.297 12.1397V7.72498L158.688 12.1244H157.133L155.491 7.71093V12.1244H153.761Z" fill="#016FD0"/>
<rect x="123.5" y="0.5" width="39" height="23" rx="1.5" stroke="#062A78"/>
<g clip-path="url(#clip1_10202_8427)">
<g clip-path="url(#clip2_10202_8427)">
<path d="M164.145 -0.85207L203.855 -0.855286L203.856 24.4386L164.146 24.4396L164.145 -0.85207Z" fill="white"/>
<path d="M203.854 -1H164V24.5844H204V-1H203.854ZM203.709 -0.710572C203.709 -0.425432 203.709 24.0087 203.709 24.2939H164.29C164.29 24.0087 164.29 -0.42436 164.29 -0.7095L203.709 -0.710572Z" fill="#231F20"/>
<path d="M203.708 13.213C203.708 13.213 192.859 20.8678 172.988 24.2981H203.708V13.213Z" fill="#F58220"/>
<path d="M184.948 5.4939C183.318 5.4939 181.996 6.76738 181.996 8.33887C181.996 10.01 183.261 11.2589 184.948 11.2589C186.594 11.2589 187.893 9.99396 187.893 8.3721C187.893 6.75023 186.602 5.4939 184.948 5.4939Z" fill="url(#paint0_radial_10202_8427)"/>
<path d="M168.187 5.59784H166.6V11.1345H168.181C169.018 11.1345 169.625 10.9351 170.155 10.4913C170.467 10.2318 170.718 9.90746 170.891 9.54088C171.065 9.17429 171.156 8.77431 171.159 8.36884C171.159 6.73411 169.938 5.59784 168.187 5.59784ZM169.449 9.75595C169.108 10.0636 168.668 10.1965 167.971 10.1965H167.68V6.5358H167.966C168.664 6.5358 169.087 6.66015 169.445 6.98388C169.634 7.15927 169.786 7.37241 169.888 7.60962C169.991 7.84683 170.043 8.10288 170.041 8.36134C170.043 8.62202 169.992 8.88047 169.89 9.12046C169.789 9.36045 169.638 9.5768 169.449 9.75595Z" fill="#001722"/>
<path d="M172.735 5.59784H171.657V11.1345H172.735V5.59784Z" fill="#001722"/>
<path d="M175.377 7.72142C174.733 7.4813 174.537 7.32265 174.537 7.02572C174.537 6.67626 174.877 6.41042 175.342 6.41042C175.664 6.41042 175.932 6.54334 176.215 6.85849L176.779 6.12099C176.331 5.72039 175.749 5.50104 175.148 5.50569C174.17 5.50569 173.421 6.18638 173.421 7.09004C173.421 7.85541 173.77 8.24453 174.783 8.61114C175.043 8.69128 175.294 8.79684 175.533 8.9263C175.632 8.98554 175.713 9.06949 175.77 9.16987C175.826 9.27024 175.855 9.38359 175.855 9.49872C175.855 9.94787 175.497 10.2791 175.015 10.2791C174.768 10.2831 174.526 10.2155 174.316 10.0844C174.107 9.95331 173.94 9.76441 173.836 9.54053L173.139 10.2137C173.637 10.9426 174.235 11.2674 175.057 11.2674C176.178 11.2674 176.966 10.5171 176.966 9.44512C176.971 8.56934 176.605 8.17057 175.377 7.72142Z" fill="#001722"/>
<path d="M177.309 8.36892C177.309 9.99722 178.588 11.2632 180.233 11.2632C180.703 11.2643 181.167 11.1541 181.586 10.9416V9.66491C181.158 10.0937 180.772 10.2706 180.282 10.2706C179.195 10.2706 178.422 9.48161 178.422 8.36142C178.422 7.29911 179.218 6.45977 180.233 6.45977C180.747 6.45977 181.137 6.64307 181.586 7.08257V5.81231C181.179 5.58935 180.722 5.47284 180.257 5.47357C179.873 5.46861 179.492 5.53974 179.135 5.68283C178.779 5.82593 178.454 6.03818 178.18 6.30734C177.906 6.57649 177.688 6.89723 177.539 7.25106C177.389 7.60489 177.311 7.98481 177.309 8.36892Z" fill="#001722"/>
<path d="M190.336 9.31645L188.859 5.59784H187.68L190.029 11.276H190.61L193.002 5.59784H191.831L190.336 9.31645Z" fill="#001722"/>
<path d="M193.493 11.1345H196.555V10.1965H194.571V8.70115H196.479V7.76426H194.571V6.5358H196.555V5.59784H193.493V11.1345Z" fill="#001722"/>
<path d="M200.829 7.2315C200.829 6.19492 200.116 5.59784 198.871 5.59784H197.268V11.1345H198.349V8.90911H198.49L199.983 11.1345H201.311L199.567 8.80191C200.382 8.63576 200.829 8.07942 200.829 7.2315ZM198.663 8.14588H198.349V6.46827H198.68C199.354 6.46827 199.719 6.75126 199.719 7.29046C199.719 7.82965 199.354 8.14588 198.663 8.14588Z" fill="#001722"/>
<path d="M201.591 6.01055C201.591 5.913 201.526 5.86047 201.408 5.86047H201.25V6.34821H201.366V6.15848L201.502 6.34821H201.647L201.485 6.14669C201.516 6.14034 201.544 6.12314 201.563 6.09819C201.583 6.07323 201.593 6.04216 201.591 6.01055ZM201.388 6.07701H201.366V5.94945H201.389C201.447 5.94945 201.476 5.97089 201.476 6.01162C201.476 6.05235 201.446 6.07486 201.388 6.07486V6.07701Z" fill="#231F20"/>
<path d="M201.43 5.67719C201.345 5.6757 201.262 5.69958 201.19 5.74578C201.119 5.79198 201.063 5.85841 201.029 5.93662C200.995 6.01482 200.986 6.10126 201.001 6.18493C201.017 6.26859 201.057 6.34569 201.117 6.40641C201.177 6.46713 201.253 6.50872 201.336 6.52588C201.42 6.54304 201.506 6.535 201.585 6.50278C201.664 6.47056 201.731 6.41562 201.779 6.34495C201.826 6.27429 201.852 6.19109 201.852 6.10597C201.852 5.99354 201.808 5.8856 201.729 5.8054C201.65 5.7252 201.543 5.67916 201.43 5.67719ZM201.43 6.45328C201.361 6.45606 201.292 6.43796 201.233 6.40129C201.173 6.36461 201.126 6.31106 201.098 6.2475C201.069 6.18394 201.06 6.11328 201.072 6.0446C201.084 5.97592 201.116 5.91236 201.164 5.86208C201.213 5.8118 201.275 5.77711 201.343 5.76246C201.411 5.74781 201.482 5.75386 201.547 5.77985C201.611 5.80584 201.667 5.85058 201.706 5.90831C201.745 5.96604 201.766 6.03413 201.766 6.10383C201.767 6.19454 201.733 6.28216 201.67 6.34761C201.607 6.41305 201.521 6.45104 201.43 6.45328Z" fill="#231F20"/>
<path d="M176.278 12.5892L177.721 14.1028V12.6685H177.928V14.598L176.483 13.0887V14.5155H176.277L176.278 12.5892Z" fill="#231F20"/>
<path d="M176.259 12.5891V14.5433H176.503V13.1412L177.947 14.6505V12.6492H177.703V14.0545C177.639 13.987 176.259 12.5409 176.259 12.5409V12.5891ZM176.297 12.6374L177.742 14.151V12.6867H177.91V14.5562L176.466 13.0426V14.4994H176.297V12.6374Z" fill="#231F20"/>
<path d="M178.929 12.6685H179.894V12.8593H179.143V13.4102H179.865V13.6021H179.133V14.3289H179.883V14.5208H178.918L178.929 12.6685Z" fill="#231F20"/>
<path d="M179.89 12.6492H178.91V14.5434H179.909V14.3129H179.159V13.6236H179.89V13.3953H179.159V12.8829H179.909V12.6524L179.89 12.6492ZM179.87 12.6867V12.84H179.12V13.4296H179.852V13.5786H179.115V14.3451H179.865V14.4984H178.943V12.6867H179.87Z" fill="#231F20"/>
<path d="M181.346 14.5208H181.14V12.8593H180.694V12.6685H181.795V12.8593H181.342L181.346 14.5208Z" fill="#231F20"/>
<path d="M181.794 12.6492H180.669V12.8797H181.116V14.5434H181.366V12.8797H181.818V12.6492H181.794ZM181.775 12.6867V12.84H181.323V14.5016H181.155V12.84H180.709V12.6867H181.775Z" fill="#231F20"/>
<path d="M183.178 14.0566L183.779 12.572L184.378 14.0566L184.864 12.6631H185.089L184.378 14.6108L183.779 13.1187L183.178 14.6108L182.47 12.6631H182.693L183.178 14.0566Z" fill="#231F20"/>
<path d="M183.762 12.5645L183.18 14.0074C183.148 13.9173 182.706 12.6546 182.706 12.6546H182.438L183.174 14.6763C183.174 14.6763 183.741 13.2667 183.774 13.182C183.808 13.2667 184.374 14.6763 184.374 14.6763L185.118 12.6492H184.853C184.853 12.6492 184.41 13.912 184.379 14.002C184.343 13.913 183.781 12.5206 183.781 12.5206L183.762 12.5645ZM183.197 14.0653L183.779 12.6267L184.379 14.1135C184.379 14.1135 184.869 12.72 184.878 12.6889H185.061C185.043 12.7382 184.41 14.4747 184.377 14.5648L183.779 13.0748L183.18 14.5648C183.147 14.4747 182.515 12.7425 182.497 12.6889H182.679C182.688 12.7146 183.177 14.1135 183.177 14.1135L183.197 14.0653Z" fill="#231F20"/>
<path d="M187.757 13.5968C187.757 13.7876 187.7 13.9741 187.594 14.1328C187.488 14.2914 187.337 14.4151 187.161 14.4881C186.985 14.5611 186.791 14.5802 186.604 14.543C186.417 14.5058 186.245 14.4139 186.11 14.279C185.975 14.144 185.883 13.9721 185.846 13.785C185.808 13.5978 185.828 13.4039 185.901 13.2276C185.974 13.0513 186.097 12.9006 186.256 12.7946C186.415 12.6886 186.601 12.632 186.792 12.632C187.048 12.632 187.293 12.7337 187.474 12.9146C187.655 13.0955 187.757 13.3409 187.757 13.5968ZM186.031 13.5968C186.033 13.7465 186.078 13.8923 186.163 14.016C186.247 14.1396 186.366 14.2355 186.505 14.2917C186.644 14.3479 186.796 14.3617 186.943 14.3316C187.089 14.3014 187.224 14.2286 187.329 14.1222C187.434 14.0158 187.506 13.8807 187.535 13.7338C187.563 13.5869 187.548 13.4348 187.49 13.2966C187.433 13.1584 187.336 13.0403 187.211 12.9571C187.087 12.874 186.941 12.8295 186.791 12.8293C186.589 12.831 186.396 12.9123 186.253 13.0556C186.111 13.1989 186.031 13.3927 186.031 13.5946V13.5968Z" fill="#231F20"/>
<path d="M185.806 13.5968C185.805 13.7919 185.861 13.9829 185.969 14.1456C186.077 14.3083 186.23 14.4354 186.41 14.5108C186.59 14.5862 186.788 14.6065 186.98 14.569C187.171 14.5316 187.347 14.4382 187.485 14.3007C187.624 14.1631 187.718 13.9876 187.757 13.7964C187.795 13.6051 187.776 13.4068 187.701 13.2265C187.627 13.0461 187.501 12.892 187.339 12.7835C187.177 12.675 186.986 12.6171 186.791 12.6171C186.662 12.6165 186.534 12.6414 186.414 12.6904C186.295 12.7394 186.186 12.8114 186.095 12.9025C186.003 12.9935 185.931 13.1017 185.881 13.2208C185.831 13.34 185.806 13.4678 185.806 13.5968ZM185.843 13.5968C185.841 13.4089 185.894 13.2246 185.997 13.0672C186.1 12.9098 186.247 12.7865 186.42 12.713C186.593 12.6395 186.784 12.619 186.968 12.6542C187.153 12.6895 187.323 12.7788 187.457 12.9108C187.59 13.0429 187.682 13.2117 187.719 13.3958C187.757 13.5799 187.739 13.7711 187.667 13.9449C187.596 14.1187 187.475 14.2674 187.318 14.3721C187.162 14.4768 186.979 14.5326 186.791 14.5327C186.541 14.5332 186.302 14.4352 186.124 14.2599C185.947 14.0846 185.846 13.8463 185.843 13.5968Z" fill="#231F20"/>
<path d="M186.011 13.5946C186.013 13.7482 186.06 13.8979 186.146 14.0248C186.233 14.1518 186.355 14.2504 186.497 14.3082C186.639 14.366 186.795 14.3804 186.946 14.3496C187.096 14.3188 187.234 14.2442 187.342 14.1352C187.45 14.0261 187.524 13.8876 187.553 13.7369C187.583 13.5862 187.567 13.4301 187.508 13.2884C187.449 13.1466 187.35 13.0254 187.222 12.9401C187.094 12.8548 186.944 12.8091 186.791 12.8089C186.688 12.8093 186.586 12.83 186.492 12.8697C186.397 12.9094 186.311 12.9674 186.238 13.0404C186.166 13.1133 186.109 13.1998 186.07 13.2949C186.031 13.39 186.011 13.4919 186.011 13.5946ZM186.051 13.5946C186.053 13.4488 186.098 13.3069 186.181 13.1867C186.264 13.0665 186.38 12.9733 186.515 12.919C186.65 12.8646 186.799 12.8515 186.942 12.8813C187.084 12.911 187.215 12.9823 187.317 13.0861C187.42 13.19 187.489 13.3218 187.517 13.465C187.545 13.6081 187.529 13.7563 187.473 13.8908C187.417 14.0254 187.322 14.1403 187.201 14.2211C187.079 14.3019 186.937 14.345 186.791 14.345C186.693 14.3444 186.596 14.3246 186.506 14.2865C186.416 14.2485 186.334 14.193 186.265 14.1233C186.197 14.0536 186.142 13.971 186.106 13.8803C186.069 13.7896 186.05 13.6925 186.051 13.5946Z" fill="#231F20"/>
<path d="M188.857 14.5208H188.655V12.6685H188.923C189.274 12.6685 189.6 12.7617 189.6 13.1787C189.604 13.2429 189.595 13.3072 189.574 13.3679C189.552 13.4285 189.519 13.4843 189.476 13.5319C189.433 13.5795 189.38 13.618 189.322 13.6452C189.264 13.6723 189.201 13.6876 189.136 13.69L189.726 14.5208H189.472L188.913 13.7072H188.861L188.857 14.5208ZM188.857 13.5249H188.921C189.153 13.5249 189.39 13.481 189.39 13.1937C189.39 12.9064 189.166 12.8593 188.919 12.8593H188.857V13.5249Z" fill="#231F20"/>
<path d="M188.655 12.6492H188.636V14.5434H188.881V13.7298H188.912C188.912 13.7437 189.457 14.5348 189.457 14.5348L189.727 14.5434H189.765L189.17 13.7051C189.298 13.6926 189.416 13.6313 189.5 13.5339C189.584 13.4365 189.627 13.3105 189.621 13.182C189.621 12.825 189.394 12.6524 188.924 12.6524L188.655 12.6492ZM188.923 12.6867C189.372 12.6867 189.581 12.8433 189.581 13.1788C189.585 13.2405 189.576 13.3022 189.555 13.3605C189.535 13.4187 189.503 13.4723 189.461 13.5181C189.42 13.5638 189.369 13.6009 189.314 13.6271C189.258 13.6534 189.197 13.6682 189.135 13.6708H189.101L189.689 14.4984H189.475C189.475 14.4844 188.931 13.6933 188.931 13.6933L188.863 13.6847H188.844V14.4984H188.676V12.6867H188.923Z" fill="#231F20"/>
<path d="M188.856 12.84H188.837V13.5443H188.921C189.148 13.5443 189.41 13.5046 189.41 13.1938C189.41 12.8829 189.156 12.84 188.919 12.84H188.856ZM188.919 12.8797C189.157 12.8797 189.37 12.9033 189.37 13.1938C189.37 13.4682 189.144 13.5057 188.921 13.5057H188.877V12.8797H188.919Z" fill="#231F20"/>
<path d="M191.592 12.6685H191.871L191.001 13.526L191.901 14.5154H191.613L190.853 13.6654L190.802 13.7158V14.5154H190.596V12.6685H190.799V13.4617L191.592 12.6685Z" fill="#231F20"/>
<path d="M191.871 12.6492H191.587C191.587 12.6492 190.883 13.3535 190.824 13.4157V12.6492H190.58V14.5434H190.824V13.7276C190.836 13.7205 190.846 13.7119 190.854 13.7019C190.881 13.7298 191.605 14.5369 191.605 14.5369L191.904 14.5434H191.948C191.948 14.5434 191.056 13.5615 191.03 13.5347L191.92 12.6524L191.871 12.6492ZM191.824 12.6867C191.762 12.7489 190.975 13.5304 190.975 13.5304L191.857 14.5016H191.613C191.613 14.4919 190.863 13.6579 190.863 13.6579L190.85 13.6419L190.785 13.7083C190.785 13.7083 190.785 14.4587 190.785 14.5016H190.617V12.6867H190.785V13.5089L191.601 12.6867H191.824Z" fill="#231F20"/>
</g>
</g>
<rect x="164.5" y="0.5" width="39" height="23" rx="1.5" stroke="#062A78"/>
<defs>
<radialGradient id="paint0_radial_10202_8427" cx="0" cy="0" r="1" gradientUnits="userSpaceOnUse" gradientTransform="translate(184.945 8.37638) scale(2.91572)">
<stop offset="0.01" stop-color="#FFEFE1"/>
<stop offset="0.11" stop-color="#FFEAD8"/>
<stop offset="0.28" stop-color="#FDDCC0"/>
<stop offset="0.49" stop-color="#FBC698"/>
<stop offset="0.74" stop-color="#F8A761"/>
<stop offset="1" stop-color="#F58220"/>
</radialGradient>
<clipPath id="clip0_10202_8427">
<rect width="24.5946" height="17.2163" fill="white" transform="translate(89.4727 4)"/>
</clipPath>
<clipPath id="clip1_10202_8427">
<rect x="164" width="40" height="24" rx="2" fill="white"/>
</clipPath>
<clipPath id="clip2_10202_8427">
<rect width="40" height="25.5844" fill="white" transform="translate(164 -1)"/>
</clipPath>
</defs>
</svg>
