<?xml version="1.0" encoding="UTF-8"?>
<!DOCTYPE svg PUBLIC "-//W3C//DTD SVG 1.1//EN" "http://www.w3.org/Graphics/SVG/1.1/DTD/svg11.dtd">
<!-- Creator: CorelDRAW 2021 (64-Bit) -->
<svg xmlns="http://www.w3.org/2000/svg" xml:space="preserve" width="8.5in" height="11in" version="1.1" style="shape-rendering:geometricPrecision; text-rendering:geometricPrecision; image-rendering:optimizeQuality; fill-rule:evenodd; clip-rule:evenodd"
viewBox="0 0 8500 11000"
 xmlns:xlink="http://www.w3.org/1999/xlink"
 xmlns:xodm="http://www.corel.com/coreldraw/odm/2003">
 <defs>
  <style type="text/css">
   <![CDATA[
    .fil0 {fill:#01143B}
    .fil2 {fill:#F53A01}
    .fil1 {fill:white}
   ]]>
  </style>
 </defs>
 <g id="Layer_x0020_1">
  <metadata id="CorelCorpID_0Corel-Layer"/>
  <g id="_2969549807424">
   <circle class="fil0" cx="4250" cy="5500" r="467.56"/>
   <path class="fil1" d="M4010.61 5468.96l-0.52 3.62 149.91 75.65c25.32,12.98 49.76,25.71 74.44,37.68 6.8,3.3 31.21,17.52 37.22,16.3 5.57,-1.12 33.26,-14.64 40.04,-17.74l234.73 -103.61c13.15,-5.62 26.02,-11.29 38.87,-17.22 6.59,-3.04 12.42,-5.73 19.28,-8.67l19.72 -10.29c-18.92,-19.43 -76.17,-58.81 -98.35,-71.81 -107.09,-62.73 -214.23,-78.09 -339.22,-84.77 -23.06,-1.23 -60.12,-5.64 -81.54,-3.41 105.43,24.06 363.62,83.65 386.3,165.59l-232.38 107.81c-8.29,1.54 -109.6,-36.81 -126.04,-42.81l-117.26 -41.74c-8.78,-3.82 -4.26,-0.24 -5.22,-4.6z"/>
   <path class="fil1" d="M4059.33 5592.39c26.76,4.66 54.48,8.12 81.92,11.96 21.65,3.03 18.06,3.4 32.8,13.92 9.17,6.54 18.15,12.74 27.18,19.59l109.02 78.04 186.66 -121.35 0.14 -88.76c-4.22,1.08 -26.29,10.36 -28.93,12.65 -4.84,4.21 -7.05,25.42 -8.38,32.71 -4.5,24.62 -3.41,15.75 -44.32,37.97 -18.41,10 -35.15,18.61 -53.66,28.48 -8.92,4.76 -49.67,28.14 -56.56,26.74 -3.71,-0.75 -90.24,-57.75 -100.31,-64.33 -13.37,-8.74 -17.97,-4.85 -34.96,-2.73 -12.34,1.54 -24.22,3.06 -36.64,4.6 -15.83,1.97 -63.53,5.46 -73.97,10.5z"/>
   <path class="fil2" d="M4010.09 5472.58l0.52 -3.62c2.54,-9.7 7.35,-20.3 10.72,-29.08 5.09,-13.27 3.53,-17.31 13.21,-26.07 41.7,-37.73 153.28,-35.23 174.39,4.72 -5.06,6.19 -13.08,11.2 -6.07,21.31 13.28,19.14 74.84,15.26 71.07,-9.48 -1.22,-8.02 -10.47,-12.93 -19.78,-15.48 -17.02,-4.65 -11.87,0.14 -25.76,-9.85 -67.75,-48.72 -193.66,-65.68 -234.48,44.83 -35.52,-2.83 -23.93,11.72 -34.96,39.77 -7.39,18.8 -15.91,36.94 -22.85,55.6l-12.57 -3.58c-12,20.78 -43.51,104.19 -46.65,131.09 -3,25.57 -1.43,38.87 18.91,41.6 -13.55,-24.24 -13.13,-12.25 -3.11,-41.03 2.62,17.2 2.53,33.77 14.18,42.46 7.88,-48.86 -19.75,-2.82 43.31,-76.03 13.16,-15.28 30.77,-66.26 36.63,-84.78 -7.83,-11.61 -15.18,9.3 5.16,-39.82 4.37,-10.57 12.2,-35.41 18.13,-42.57z"/>
  </g>
 </g>
</svg>
