<?xml version="1.0" encoding="UTF-8"?>
<!DOCTYPE svg PUBLIC "-//W3C//DTD SVG 1.0//EN" "http://www.w3.org/TR/2001/REC-SVG-20010904/DTD/svg10.dtd">
<!-- Creator: CorelDRAW 2021 (64-Bit) -->
<svg xmlns="http://www.w3.org/2000/svg" xml:space="preserve" width="2550px" height="3300px" version="1.0" style="shape-rendering:geometricPrecision; text-rendering:geometricPrecision; image-rendering:optimizeQuality; fill-rule:evenodd; clip-rule:evenodd"
viewBox="0 0 2550 3300"
 xmlns:xlink="http://www.w3.org/1999/xlink"
 xmlns:xodm="http://www.corel.com/coreldraw/odm/2003">
 <defs>
  <style type="text/css">
   <![CDATA[
    .fil0 {fill:#01143B}
    .fil2 {fill:#F53A01}
    .fil1 {fill:white}
   ]]>
  </style>
 </defs>
 <g id="Layer_x0020_1">
  <metadata id="CorelCorpID_0Corel-Layer"/>
  <g id="_2971314520624">
   <circle class="fil0" cx="1275" cy="1650" r="137.95"/>
   <path class="fil1" d="M1204.37 1640.84l-0.15 1.07 44.23 22.32c7.47,3.83 14.68,7.59 21.96,11.12 2.01,0.97 9.21,5.17 10.98,4.81 1.65,-0.33 9.82,-4.32 11.82,-5.23l69.25 -30.57c3.88,-1.66 7.68,-3.34 11.47,-5.08 1.95,-0.9 3.66,-1.69 5.69,-2.56l5.82 -3.04c-5.59,-5.73 -22.48,-17.35 -29.02,-21.18 -31.6,-18.51 -63.21,-23.05 -100.08,-25.02 -6.81,-0.36 -17.74,-1.66 -24.06,-1 31.11,7.1 107.28,24.68 113.97,48.86l-68.56 31.81c-2.44,0.45 -32.34,-10.86 -37.18,-12.64l-34.6 -12.31c-2.59,-1.13 -1.26,-0.07 -1.54,-1.36z"/>
   <path class="fil1" d="M1218.75 1677.26c7.89,1.37 16.07,2.4 24.17,3.53 6.38,0.89 5.32,1 9.67,4.11 2.71,1.93 5.36,3.76 8.02,5.78l32.17 23.02 55.07 -35.8 0.05 -26.19c-1.25,0.32 -7.76,3.06 -8.54,3.73 -1.43,1.25 -2.08,7.5 -2.47,9.65 -1.33,7.27 -1.01,4.65 -13.08,11.21 -5.43,2.95 -10.37,5.49 -15.83,8.4 -2.63,1.4 -14.66,8.3 -16.69,7.89 -1.09,-0.22 -26.62,-17.04 -29.59,-18.98 -3.95,-2.58 -5.3,-1.43 -10.32,-0.81 -3.64,0.46 -7.15,0.91 -10.81,1.36 -4.67,0.58 -18.74,1.61 -21.82,3.1z"/>
   <path class="fil2" d="M1204.22 1641.91l0.15 -1.07c0.75,-2.86 2.17,-5.99 3.16,-8.58 1.5,-3.91 1.04,-5.11 3.9,-7.69 12.3,-11.13 45.22,-10.39 51.45,1.39 -1.49,1.83 -3.86,3.31 -1.79,6.29 3.92,5.65 22.08,4.51 20.97,-2.8 -0.36,-2.36 -3.09,-3.81 -5.84,-4.56 -5.02,-1.38 -3.5,0.04 -7.6,-2.91 -19.99,-14.37 -57.14,-19.38 -69.18,13.23 -10.48,-0.83 -7.06,3.46 -10.32,11.73 -2.18,5.55 -4.69,10.9 -6.74,16.41l-3.71 -1.06c-3.54,6.13 -12.83,30.74 -13.76,38.68 -0.89,7.55 -0.42,11.47 5.58,12.27 -4,-7.15 -3.88,-3.61 -0.92,-12.1 0.77,5.07 0.75,9.96 4.18,12.53 2.33,-14.42 -5.83,-0.84 12.78,-22.44 3.89,-4.5 9.08,-19.54 10.81,-25.01 -2.31,-3.42 -4.48,2.75 1.52,-11.75 1.29,-3.12 3.61,-10.44 5.36,-12.56z"/>
  </g>
 </g>
</svg>
