<?xml version="1.0" encoding="UTF-8"?>
<!DOCTYPE svg PUBLIC "-//W3C//DTD SVG 1.0//EN" "http://www.w3.org/TR/2001/REC-SVG-20010904/DTD/svg10.dtd">
<!-- Creator: CorelDRAW 2021 (64-Bit) -->
<svg xmlns="http://www.w3.org/2000/svg" xml:space="preserve" width="2550px" height="3300px" version="1.0" style="shape-rendering:geometricPrecision; text-rendering:geometricPrecision; image-rendering:optimizeQuality; fill-rule:evenodd; clip-rule:evenodd"
viewBox="0 0 2550 3300"
 xmlns:xlink="http://www.w3.org/1999/xlink"
 xmlns:xodm="http://www.corel.com/coreldraw/odm/2003">
 <defs>
  <style type="text/css">
   <![CDATA[
    .fil0 {fill:#F53A01;fill-rule:nonzero}
   ]]>
  </style>
 </defs>
 <g id="Layer_x0020_1">
  <metadata id="CorelCorpID_0Corel-Layer"/>
  <path class="fil0" d="M-5981.67 770.07c-254.5,7.88 -508.82,21.12 -762.76,39.62 -230.39,4.12 -460.83,8.19 -691.28,12.25 -252.83,4.5 -505.66,9 -758.49,13.43 -24.46,0.44 -62.34,18.37 -66.04,45.55 -4.13,29.93 32.87,34.93 53.7,34.56 164.25,-2.94 328.55,-5.81 492.83,-8.75 -68.33,8.69 -136.66,17.75 -204.91,27.18 -23.67,3.31 -56.71,14.37 -64.29,40.31 -6.75,23.05 14.33,39.42 36.71,39.86 379.45,6.5 758.87,13 1138.35,19.5 80.73,1.37 161.46,2.81 242.19,4.18 -116.16,12.69 -232.13,27.31 -347.86,43.87 -181.33,25.99 -361.97,56.8 -541.77,91.98 -19.41,3.81 -46.96,20.81 -49.96,42.61 -2.83,20.81 20.09,34.43 38.55,34.62 431.52,3.75 862.99,7.5 1294.51,11.31 121.6,1.06 243.26,2.12 364.92,3.19 27.87,0.18 63.61,-7.75 77.67,-35.12 12.5,-24.5 -11,-44.86 -34.93,-45.11 -415.4,-3.63 -830.75,-7.25 -1246.15,-10.88 11.62,-1.75 23.12,-3.5 34.74,-5.25 156.96,-23.24 314.43,-42.92 472.27,-59.04 315.86,-32.25 633.1,-50.24 950.53,-53.74 14.06,-0.19 28.24,-0.25 42.43,-0.32 160.9,2.75 321.8,5.5 482.7,8.25 27.87,0.5 63.74,-7.87 77.67,-35.05 12.81,-25.06 -11.18,-44.18 -34.93,-45.12 -164.21,-6.62 -328.55,-9.43 -492.89,-8.43 -215.13,-3.75 -430.27,-7.44 -645.41,-11.12 -379.42,-6.5 -758.83,-13 -1138.31,-19.5 -30.57,-0.56 -61.16,-1.06 -91.78,-1.62 198.7,-21.13 397.65,-39 596.92,-53.49 415.4,-7.38 830.81,-14.75 1246.22,-22.12 252.81,-4.5 505.63,-8.94 758.45,-13.44 23.18,-0.37 57.3,-16.31 64.3,-40.24 6.81,-23.43 -14.44,-39.05 -36.74,-39.86 -418.85,-15.69 -838.25,-17 -1257.16,-4.07z"/>
 </g>
</svg>
